<mxfile host="app.diagrams.net" agent="Mozilla/5.0 (X11; Linux x86_64) AppleWebKit/537.36 (KHTML, like Gecko) Chrome/134.0.0.0 Safari/537.36" version="26.2.8">
  <diagram name="Страница-1" id="5YEgut14-etFqZxIC_qB">
    <mxGraphModel dx="793" dy="455" grid="1" gridSize="10" guides="1" tooltips="1" connect="1" arrows="1" fold="1" page="1" pageScale="1" pageWidth="827" pageHeight="1169" math="0" shadow="0">
      <root>
        <mxCell id="0" />
        <mxCell id="1" parent="0" />
        <mxCell id="oh9eQlsX34iOXUxyGE5B-1" value="mariaDB" style="strokeWidth=2;html=1;shape=mxgraph.flowchart.database;whiteSpace=wrap;" vertex="1" parent="1">
          <mxGeometry x="375" y="820" width="120" height="120" as="geometry" />
        </mxCell>
        <mxCell id="oh9eQlsX34iOXUxyGE5B-7" value="" style="whiteSpace=wrap;html=1;aspect=fixed;" vertex="1" parent="1">
          <mxGeometry x="80" y="430" width="180" height="180" as="geometry" />
        </mxCell>
        <mxCell id="oh9eQlsX34iOXUxyGE5B-2" value="Странциа за регистрация" style="shape=umlFrame;whiteSpace=wrap;html=1;pointerEvents=0;width=160;height=30;" vertex="1" parent="1">
          <mxGeometry x="80" y="430" width="180" height="180" as="geometry" />
        </mxCell>
        <mxCell id="oh9eQlsX34iOXUxyGE5B-12" value="register.js" style="whiteSpace=wrap;html=1;aspect=fixed;" vertex="1" parent="1">
          <mxGeometry x="390" y="495" width="80" height="80" as="geometry" />
        </mxCell>
        <mxCell id="oh9eQlsX34iOXUxyGE5B-43" value="" style="edgeStyle=orthogonalEdgeStyle;rounded=0;orthogonalLoop=1;jettySize=auto;html=1;" edge="1" parent="1" source="oh9eQlsX34iOXUxyGE5B-13" target="oh9eQlsX34iOXUxyGE5B-1">
          <mxGeometry relative="1" as="geometry" />
        </mxCell>
        <mxCell id="oh9eQlsX34iOXUxyGE5B-13" value="server.js" style="whiteSpace=wrap;html=1;aspect=fixed;" vertex="1" parent="1">
          <mxGeometry x="395" y="665" width="80" height="80" as="geometry" />
        </mxCell>
        <mxCell id="oh9eQlsX34iOXUxyGE5B-16" value="" style="ellipse;whiteSpace=wrap;html=1;align=center;aspect=fixed;fillColor=none;strokeColor=none;resizable=0;perimeter=centerPerimeter;rotatable=0;allowArrows=0;points=[];outlineConnect=1;" vertex="1" parent="1">
          <mxGeometry x="385" y="720" width="10" height="10" as="geometry" />
        </mxCell>
        <mxCell id="oh9eQlsX34iOXUxyGE5B-25" value="" style="ellipse;whiteSpace=wrap;html=1;align=center;aspect=fixed;fillColor=none;strokeColor=none;resizable=0;perimeter=centerPerimeter;rotatable=0;allowArrows=0;points=[];outlineConnect=1;" vertex="1" parent="1">
          <mxGeometry x="425" y="630" width="10" height="10" as="geometry" />
        </mxCell>
        <mxCell id="oh9eQlsX34iOXUxyGE5B-42" value="" style="ellipse;whiteSpace=wrap;html=1;align=center;aspect=fixed;fillColor=none;strokeColor=none;resizable=0;perimeter=centerPerimeter;rotatable=0;allowArrows=0;points=[];outlineConnect=1;" vertex="1" parent="1">
          <mxGeometry x="430" y="650" width="10" height="10" as="geometry" />
        </mxCell>
        <mxCell id="oh9eQlsX34iOXUxyGE5B-44" style="edgeStyle=orthogonalEdgeStyle;rounded=0;orthogonalLoop=1;jettySize=auto;html=1;entryX=0.038;entryY=0.323;entryDx=0;entryDy=0;entryPerimeter=0;" edge="1" parent="1" source="oh9eQlsX34iOXUxyGE5B-7" target="oh9eQlsX34iOXUxyGE5B-12">
          <mxGeometry relative="1" as="geometry" />
        </mxCell>
        <mxCell id="oh9eQlsX34iOXUxyGE5B-46" value="Потребителски данни за регистрация" style="edgeLabel;html=1;align=center;verticalAlign=middle;resizable=0;points=[];" vertex="1" connectable="0" parent="oh9eQlsX34iOXUxyGE5B-44">
          <mxGeometry x="-0.6391" relative="1" as="geometry">
            <mxPoint as="offset" />
          </mxGeometry>
        </mxCell>
        <mxCell id="oh9eQlsX34iOXUxyGE5B-45" style="edgeStyle=orthogonalEdgeStyle;rounded=0;orthogonalLoop=1;jettySize=auto;html=1;entryX=0.435;entryY=0.008;entryDx=0;entryDy=0;entryPerimeter=0;" edge="1" parent="1" source="oh9eQlsX34iOXUxyGE5B-12" target="oh9eQlsX34iOXUxyGE5B-13">
          <mxGeometry relative="1" as="geometry" />
        </mxCell>
      </root>
    </mxGraphModel>
  </diagram>
</mxfile>
